<?xml version="1.0" encoding="utf-8"?>
<!-- Generator: Adobe Illustrator 22.0.1, SVG Export Plug-In . SVG Version: 6.00 Build 0)  -->
<svg version="1.1" id="Layer_1" xmlns="http://www.w3.org/2000/svg" xmlns:xlink="http://www.w3.org/1999/xlink" x="0px" y="0px"
	 viewBox="0 0 258.3 150" style="enable-background:new 0 0 258.3 150;" xml:space="preserve">
<style type="text/css">
	.st0{fill:#59058D;}
</style>
<g>
	<g>
		<g id="Artwork_1_5_">
			<g>
				<g>
					<path fill="#98A4AE" d="M-0.3,43.4l2.7,2.5C35.4,11,64,9.4,98.9,19.5C64,7,34.5,5.7-0.3,43.4 M201.4,34.3
						C138.4,8.2,88.8-12.3,41,9.8c29-8.5,57.3,3.6,90.1,17.7c10.9,4.7,22.1,9.5,34.2,14l2.5-6.8c-8.5-3.1-16.5-6.2-24.4-9.2
						C113.8,14,88.4,4.3,63.9,4.7c40.4-8.2,84.3,9.7,137.8,31.6c17.7,7.2,35.9,14.7,55.5,21.8l0.6-1.6
						C237.9,49.3,219.3,41.7,201.4,34.3"/>
				</g>
			</g>
		</g>
	</g>
	<g>
		<g>
			<path fill="#5C068C" d="M77.3,60.4H61V46h47.2v14.4H91.9v38H77.4L77.3,60.4z"/>
		</g>
		<polygon fill="#5C068C" points="41.3,46 41.3,72.7 22.6,46 8.6,46 8.6,98.4 23,98.4 23,71.7 41.7,98.4 55.8,98.4 55.8,46 		"/>
		<g>
			<path fill="#5C068C" d="M141.5,46H122l-19,52.4h15.3l2.6-7.2h21.7l2.6,7.2h15.3L141.5,46z M126.2,76.8l5.6-15.4l5.6,15.4H126.2z"/>
		</g>
	</g>
</g>
<g>
	<g>
		<path fill="#211551" d="M9.4,133.9h1.4l8.1,10.3v-10.3h1.4v12.8H19l-8.3-10.5v10.5H9.4V133.9z"/>
		<path fill="#211551" d="M22.6,144L22.6,144c0-2.1,1.6-3.1,4-3.1c1.2,0,2.1,0.2,2.9,0.4V141c0-1.7-1-2.6-2.8-2.6c-1.1,0-2,0.3-2.9,0.7
			l-0.4-1.2c1-0.5,2.1-0.8,3.4-0.8s2.4,0.4,3.1,1c0.7,0.7,1,1.6,1,2.8v5.8h-1.4v-1.4c-0.7,0.8-1.7,1.6-3.4,1.6
			C24.3,146.9,22.6,145.9,22.6,144z M29.5,143.3v-0.9c-0.7-0.2-1.6-0.4-2.8-0.4c-1.8,0-2.8,0.8-2.8,1.9l0,0c0,1.2,1.1,1.9,2.4,1.9
			C28.1,145.8,29.5,144.8,29.5,143.3z"/>
		<path fill="#211551" d="M33.8,144.2v-5.7h-1.3v-1.2h1.3v-2.9h1.4v2.9h3v1.2h-3v5.5c0,1.2,0.6,1.6,1.6,1.6c0.5,0,0.9-0.1,1.4-0.3v1.2
			c-0.5,0.3-1,0.4-1.7,0.4C34.9,146.9,33.8,146.1,33.8,144.2z"/>
		<path fill="#211551" d="M40,133.6h1.6v1.6H40V133.6z M40.1,137.3h1.4v9.5h-1.4V137.3z"/>
		<path fill="#211551" d="M43.7,142L43.7,142c0-2.7,2.1-5,4.9-5c2.8,0,4.9,2.2,4.9,4.9l0,0c0,2.7-2.1,4.9-5,4.9
			C45.8,147,43.7,144.7,43.7,142z M52.1,142L52.1,142c0-2.1-1.5-3.7-3.5-3.7c-2.1,0-3.5,1.7-3.5,3.7l0,0c0,2,1.5,3.7,3.5,3.7
			C50.7,145.7,52.1,144,52.1,142z"/>
		<path fill="#211551" d="M55.7,137.3h1.4v1.6c0.6-1,1.6-1.8,3.2-1.8c2.3,0,3.6,1.5,3.6,3.8v5.9h-1.4v-5.5c0-1.8-1-2.9-2.6-2.9
			s-2.8,1.2-2.8,3v5.4h-1.4V137.3z"/>
		<path fill="#211551" d="M65.9,144L65.9,144c0-2.1,1.6-3.1,4-3.1c1.2,0,2.1,0.2,2.9,0.4V141c0-1.7-1-2.6-2.8-2.6c-1.1,0-2,0.3-2.9,0.7
			l-0.4-1.2c1-0.5,2.1-0.8,3.4-0.8s2.4,0.4,3.1,1c0.7,0.7,1,1.6,1,2.8v5.8h-1.4v-1.4c-0.7,0.8-1.7,1.6-3.4,1.6
			C67.6,146.9,65.9,145.9,65.9,144z M72.8,143.3v-0.9c-0.7-0.2-1.6-0.4-2.8-0.4c-1.8,0-2.8,0.8-2.8,1.9l0,0c0,1.2,1.1,1.9,2.4,1.9
			C71.4,145.8,72.8,144.8,72.8,143.3z"/>
		<path fill="#211551" d="M76.9,133.4h1.4v13.4h-1.4V133.4z"/>
		<path fill="#211551" d="M88.6,135.3h-4.3V134h10.1v1.3h-4.3v11.5h-1.5C88.6,146.8,88.6,135.3,88.6,135.3z"/>
		<path fill="#211551" d="M94.8,137.3h1.4v2.5c0.7-1.6,2.1-2.7,3.9-2.6v1.5H100c-2.1,0-3.8,1.5-3.8,4.3v3.8h-1.4
			C94.8,146.8,94.8,137.3,94.8,137.3z"/>
		<path fill="#211551" d="M100.9,144L100.9,144c0-2.1,1.6-3.1,4-3.1c1.2,0,2.1,0.2,2.9,0.4V141c0-1.7-1-2.6-2.8-2.6
			c-1.1,0-2,0.3-2.9,0.7l-0.4-1.2c1-0.5,2.1-0.8,3.4-0.8s2.4,0.4,3.1,1c0.7,0.7,1,1.6,1,2.8v5.8h-1.4v-1.4c-0.7,0.8-1.7,1.6-3.4,1.6
			C102.7,146.9,100.9,145.9,100.9,144z M107.9,143.3v-0.9c-0.7-0.2-1.6-0.4-2.8-0.4c-1.8,0-2.8,0.8-2.8,1.9l0,0
			c0,1.2,1.1,1.9,2.4,1.9C106.5,145.8,107.9,144.8,107.9,143.3z"/>
		<path fill="#211551" d="M111.9,137.3h1.4v1.6c0.6-1,1.6-1.8,3.2-1.8c2.3,0,3.6,1.5,3.6,3.8v5.9h-1.4v-5.5c0-1.8-1-2.9-2.6-2.9
			s-2.8,1.2-2.8,3v5.4h-1.4C111.9,146.8,111.9,137.3,111.9,137.3z"/>
		<path fill="#211551" d="M122,145.5l0.7-1c1,0.8,2.2,1.2,3.3,1.2c1.1,0,2-0.6,2-1.5l0,0c0-1-1.1-1.3-2.4-1.7c-1.5-0.4-3.1-0.9-3.1-2.7
			l0,0c0-1.6,1.4-2.7,3.2-2.7c1.2,0,2.4,0.4,3.4,1l-0.6,1.1c-0.9-0.6-1.9-0.9-2.8-0.9c-1.1,0-1.8,0.6-1.8,1.4l0,0
			c0,0.9,1.2,1.2,2.4,1.6c1.5,0.4,3,1,3,2.7l0,0c0,1.8-1.5,2.8-3.4,2.8C124.5,146.9,123,146.4,122,145.5z"/>
		<path fill="#211551" d="M131.4,137.3h1.4v1.9c0.8-1.1,1.9-2.1,3.6-2.1c2.3,0,4.5,1.8,4.5,4.9l0,0c0,3.1-2.2,4.9-4.5,4.9
			c-1.8,0-2.9-1-3.6-2v4.7h-1.4V137.3z M139.5,142L139.5,142c0-2.3-1.5-3.7-3.3-3.7s-3.4,1.5-3.4,3.6l0,0c0,2.2,1.7,3.7,3.4,3.7
			C138,145.7,139.5,144.3,139.5,142z"/>
		<path fill="#211551" d="M142.6,142L142.6,142c0-2.7,2.1-5,4.9-5c2.8,0,4.9,2.2,4.9,4.9l0,0c0,2.7-2.1,4.9-5,4.9
			C144.7,147,142.6,144.7,142.6,142z M151,142L151,142c0-2.1-1.5-3.7-3.5-3.7c-2.1,0-3.5,1.7-3.5,3.7l0,0c0,2,1.5,3.7,3.5,3.7
			C149.6,145.7,151,144,151,142z"/>
		<path fill="#211551" d="M154.6,137.3h1.4v2.5c0.7-1.6,2.1-2.7,3.9-2.6v1.5h-0.1c-2.1,0-3.8,1.5-3.8,4.3v3.8h-1.4L154.6,137.3
			L154.6,137.3z"/>
		<path fill="#211551" d="M162.5,144.2v-5.7h-1.3v-1.2h1.3v-2.9h1.4v2.9h3v1.2h-3v5.5c0,1.2,0.6,1.6,1.6,1.6c0.5,0,0.9-0.1,1.4-0.3v1.2
			c-0.5,0.3-1,0.4-1.7,0.4C163.6,146.9,162.5,146.1,162.5,144.2z"/>
		<path fill="#211551" d="M179.1,133.8h1.4l5.8,12.9h-1.6l-1.5-3.4h-7l-1.5,3.4h-1.5L179.1,133.8z M182.7,142l-2.9-6.5l-2.9,6.5H182.7z
			"/>
		<path fill="#211551" d="M187.7,143.1v-5.9h1.4v5.5c0,1.8,1,2.9,2.6,2.9s2.8-1.2,2.8-3v-5.4h1.4v9.5h-1.4v-1.6c-0.6,1-1.6,1.8-3.2,1.8
			C189,146.9,187.7,145.4,187.7,143.1z"/>
		<path fill="#211551" d="M199.1,144.2v-5.7h-1.3v-1.2h1.3v-2.9h1.4v2.9h3v1.2h-3v5.5c0,1.2,0.6,1.6,1.6,1.6c0.5,0,0.9-0.1,1.4-0.3v1.2
			c-0.5,0.3-1,0.4-1.7,0.4C200.2,146.9,199.1,146.1,199.1,144.2z"/>
		<path fill="#211551" d="M205.3,133.4h1.4v5.5c0.6-1,1.6-1.8,3.2-1.8c2.3,0,3.6,1.5,3.6,3.8v5.9h-1.4v-5.5c0-1.8-1-2.9-2.6-2.9
			s-2.8,1.2-2.8,3v5.4h-1.4V133.4z"/>
		<path fill="#211551" d="M215.6,142L215.6,142c0-2.7,2.1-5,4.9-5c2.8,0,4.9,2.2,4.9,4.9l0,0c0,2.7-2.1,4.9-5,4.9
			C217.7,147,215.6,144.7,215.6,142z M224.1,142L224.1,142c0-2.1-1.5-3.7-3.5-3.7c-2.1,0-3.5,1.7-3.5,3.7l0,0c0,2,1.5,3.7,3.5,3.7
			S224.1,144,224.1,142z"/>
		<path fill="#211551" d="M227.7,137.3h1.4v2.5c0.7-1.6,2.1-2.7,3.9-2.6v1.5h-0.1c-2.1,0-3.8,1.5-3.8,4.3v3.8h-1.4L227.7,137.3
			L227.7,137.3z"/>
		<path fill="#211551" d="M234.6,133.6h1.6v1.6h-1.6V133.6z M234.7,137.3h1.4v9.5h-1.4V137.3z"/>
		<path fill="#211551" d="M239.2,144.2v-5.7h-1.3v-1.2h1.3v-2.9h1.4v2.9h3v1.2h-3v5.5c0,1.2,0.6,1.6,1.6,1.6c0.5,0,0.9-0.1,1.4-0.3v1.2
			c-0.5,0.3-1,0.4-1.7,0.4C240.3,146.9,239.2,146.1,239.2,144.2z"/>
		<path fill="#211551" d="M245.4,149.2l0.5-1.1c0.5,0.2,0.9,0.3,1.5,0.3c0.8,0,1.4-0.4,1.9-1.8l-4.3-9.4h1.6l3.4,7.9l3-7.9h1.5l-4,9.8
			c-0.8,2-1.7,2.7-3.1,2.7C246.6,149.7,246,149.6,245.4,149.2z"/>
	</g>
	<g>
		<path fill="#211551" d="M8.9,120.1v-7.6h2.9v7.5c0,2.2,1.1,3.3,2.9,3.3s2.9-1.1,2.9-3.2v-7.6h2.9v7.5c0,4-2.3,6-5.8,6
			C11.1,126,8.9,124,8.9,120.1z M15.5,108.2l2.5,1.1l-2.4,2.3h-2.2L15.5,108.2z"/>
		<path fill="#211551" d="M22.9,120.7L22.9,120.7c0-3.4,2.2-5.3,4.6-5.3c1.5,0,2.5,0.7,3.2,1.5v-5h2.9v13.8h-2.9v-1.5
			c-0.7,0.9-1.7,1.6-3.2,1.6C25.2,126,22.9,124.1,22.9,120.7z M30.7,120.7L30.7,120.7c0-1.7-1.1-2.8-2.5-2.8c-1.3,0-2.5,1.1-2.5,2.8
			l0,0c0,1.7,1.1,2.8,2.5,2.8S30.7,122.4,30.7,120.7z"/>
		<path fill="#211551" d="M35.9,122.8L35.9,122.8c0-2.3,1.7-3.3,4.1-3.3c1,0,1.8,0.2,2.5,0.4v-0.2c0-1.2-0.7-1.9-2.2-1.9
			c-1.1,0-1.9,0.2-2.8,0.6l-0.7-2.2c1.1-0.5,2.2-0.8,3.9-0.8c1.6,0,2.7,0.4,3.4,1.1c0.8,0.8,1.1,1.9,1.1,3.2v5.9h-2.8v-1.1
			c-0.7,0.8-1.7,1.3-3.1,1.3C37.4,126,35.9,124.9,35.9,122.8z M42.5,122.2v-0.5c-0.5-0.2-1.1-0.4-1.8-0.4c-1.2,0-2,0.5-2,1.4l0,0
			c0,0.8,0.6,1.2,1.6,1.2C41.6,124,42.5,123.2,42.5,122.2z"/>
		<path fill="#211551" d="M48,115.6h2.9v2c0.6-1.4,1.5-2.3,3.2-2.2v3h-0.2c-1.9,0-3.1,1.2-3.1,3.6v3.8H48V115.6z"/>
		<path fill="#211551" d="M55.2,122.8L55.2,122.8c0-2.3,1.7-3.3,4.1-3.3c1,0,1.8,0.2,2.5,0.4v-0.2c0-1.2-0.7-1.9-2.2-1.9
			c-1.1,0-1.9,0.2-2.8,0.6l-0.7-2.2c1.1-0.5,2.2-0.8,3.9-0.8c1.6,0,2.7,0.4,3.4,1.1c0.8,0.8,1.1,1.9,1.1,3.2v5.9h-2.8v-1.1
			c-0.7,0.8-1.7,1.3-3.1,1.3C56.8,126,55.2,124.9,55.2,122.8z M61.8,122.2v-0.5c-0.5-0.2-1.1-0.4-1.8-0.4c-1.2,0-2,0.5-2,1.4l0,0
			c0,0.8,0.6,1.2,1.6,1.2C60.9,124,61.8,123.2,61.8,122.2z M60.9,111.1l2.5,1.1l-2.4,2.3h-2.2L60.9,111.1z"/>
		<path fill="#211551" d="M66.4,124.4l1.2-1.9c1.1,0.8,2.3,1.2,3.2,1.2c0.8,0,1.2-0.3,1.2-0.8l0,0c0-0.6-1-0.8-2.1-1.2
			c-1.4-0.4-3-1.1-3-3.1l0,0c0-2.1,1.7-3.2,3.7-3.2c1.3,0,2.7,0.4,3.8,1.2l-1.1,2c-1-0.6-2-0.9-2.7-0.9s-1.1,0.3-1.1,0.7l0,0
			c0,0.6,1,0.8,2.1,1.2c1.4,0.5,3.1,1.2,3.1,3l0,0c0,2.3-1.7,3.3-3.9,3.3C69.4,126,67.8,125.5,66.4,124.4z"/>
		<path fill="#211551" d="M83,112.5h2.7l6.2,8.2v-8.2h2.9v13.3h-2.5l-6.4-8.4v8.4H83V112.5z"/>
		<path fill="#211551" d="M97.4,122.8L97.4,122.8c0-2.3,1.7-3.3,4.1-3.3c1,0,1.8,0.2,2.5,0.4v-0.2c0-1.2-0.7-1.9-2.2-1.9
			c-1.1,0-1.9,0.2-2.8,0.6l-0.7-2.2c1.1-0.5,2.2-0.8,3.9-0.8c1.6,0,2.7,0.4,3.4,1.1c0.8,0.8,1.1,1.9,1.1,3.2v5.9H104v-1.1
			c-0.7,0.8-1.7,1.3-3.1,1.3C99,126,97.4,124.9,97.4,122.8z M104,122.2v-0.5c-0.5-0.2-1.1-0.4-1.8-0.4c-1.2,0-2,0.5-2,1.4l0,0
			c0,0.8,0.6,1.2,1.6,1.2C103.1,124,104,123.2,104,122.2z M103.2,111.1l2.5,1.1l-2.4,2.3H101L103.2,111.1z"/>
		<path fill="#211551" d="M109.5,111.9h3v2.6h-3V111.9z M109.6,115.6h2.9v10.2h-2.9V115.6z"/>
		<path fill="#211551" d="M114.6,124.4l1.2-1.9c1.1,0.8,2.3,1.2,3.2,1.2c0.8,0,1.2-0.3,1.2-0.8l0,0c0-0.6-1-0.8-2.1-1.2
			c-1.4-0.4-3-1.1-3-3.1l0,0c0-2.1,1.7-3.2,3.7-3.2c1.3,0,2.7,0.4,3.8,1.2l-1.1,2c-1-0.6-2-0.9-2.7-0.9s-1.1,0.3-1.1,0.7l0,0
			c0,0.6,1,0.8,2.1,1.2c1.4,0.5,3.1,1.2,3.1,3l0,0c0,2.3-1.7,3.3-3.9,3.3C117.5,126,115.9,125.5,114.6,124.4z"/>
		<path fill="#211551" d="M125.1,111.9h3v2.6h-3C125.1,114.5,125.1,111.9,125.1,111.9z M125.2,115.6h2.9v10.2h-2.9
			C125.2,125.8,125.2,115.6,125.2,115.6z"/>
		<path fill="#211551" d="M130.9,122.2v-6.6h2.9v5.7c0,1.4,0.6,2.1,1.7,2.1c1.1,0,1.8-0.7,1.8-2.1v-5.7h2.9v10.2h-2.9v-1.4
			c-0.7,0.9-1.5,1.6-3,1.6C132.2,126,130.9,124.5,130.9,122.2z M136.3,111.1l2.5,1.1l-2.4,2.3h-2.2L136.3,111.1z"/>
		<path fill="#211551" d="M143.1,115.6h2.9v1.4c0.7-0.9,1.5-1.6,3-1.6c2.2,0,3.4,1.4,3.4,3.8v6.6h-2.9v-5.7c0-1.4-0.6-2.1-1.7-2.1
			s-1.8,0.7-1.8,2.1v5.7h-2.9V115.6z"/>
		<path fill="#211551" d="M155.6,122.9v-4.8h-1.2v-2.5h1.2V113h2.9v2.6h2.4v2.5h-2.4v4.3c0,0.7,0.3,1,0.9,1c0.5,0,1-0.1,1.4-0.4v2.3
			c-0.6,0.4-1.3,0.6-2.3,0.6C156.8,125.9,155.6,125.2,155.6,122.9z"/>
		<path fill="#211551" d="M162.6,122.8L162.6,122.8c0-2.3,1.7-3.3,4.1-3.3c1,0,1.8,0.2,2.5,0.4v-0.2c0-1.2-0.7-1.9-2.2-1.9
			c-1.1,0-1.9,0.2-2.8,0.6l-0.7-2.2c1.1-0.5,2.2-0.8,3.9-0.8c1.6,0,2.7,0.4,3.4,1.1c0.8,0.8,1.1,1.9,1.1,3.2v5.9h-2.8v-1.1
			c-0.7,0.8-1.7,1.3-3.1,1.3C164.1,126,162.6,124.9,162.6,122.8z M169.2,122.2v-0.5c-0.5-0.2-1.1-0.4-1.8-0.4c-1.2,0-2,0.5-2,1.4
			l0,0c0,0.8,0.6,1.2,1.6,1.2C168.3,124,169.2,123.2,169.2,122.2z"/>
		<path fill="#211551" d="M180.8,112.5h2.9v13.3h-2.9V112.5z"/>
		<path fill="#211551" d="M186.4,120.7L186.4,120.7c0-3,2.3-5.3,5.5-5.3c3.1,0,5.5,2.3,5.5,5.2l0,0c0,2.9-2.3,5.3-5.5,5.3
			C188.8,126,186.4,123.7,186.4,120.7z M194.6,120.7L194.6,120.7c0-1.5-1.1-2.8-2.7-2.8c-1.6,0-2.6,1.3-2.6,2.8l0,0
			c0,1.5,1.1,2.8,2.7,2.8C193.6,123.5,194.6,122.2,194.6,120.7z"/>
		<path fill="#211551" d="M199.7,115.6h2.9v1.4c0.7-0.9,1.5-1.6,3-1.6c1.3,0,2.3,0.6,2.9,1.6c0.9-1,2-1.6,3.3-1.6
			c2.1,0,3.4,1.3,3.4,3.7v6.6h-2.9V120c0-1.4-0.6-2.1-1.7-2.1s-1.7,0.7-1.7,2.1v5.7H206V120c0-1.4-0.6-2.1-1.7-2.1
			c-1.1,0-1.7,0.7-1.7,2.1v5.7h-2.9L199.7,115.6L199.7,115.6z"/>
		<path fill="#211551" d="M218.1,115.6h2.9v1.5c0.7-0.9,1.7-1.6,3.2-1.6c2.4,0,4.6,1.9,4.6,5.2l0,0c0,3.4-2.2,5.2-4.6,5.2
			c-1.5,0-2.5-0.7-3.2-1.5v4.4h-2.9V115.6z M225.9,120.7L225.9,120.7c0-1.7-1.1-2.8-2.5-2.8c-1.3,0-2.5,1.1-2.5,2.8l0,0
			c0,1.7,1.1,2.8,2.5,2.8C224.7,123.5,225.9,122.4,225.9,120.7z"/>
		<path fill="#211551" d="M230.4,122.8L230.4,122.8c0-2.3,1.7-3.3,4.1-3.3c1,0,1.8,0.2,2.5,0.4v-0.2c0-1.2-0.7-1.9-2.2-1.9
			c-1.1,0-1.9,0.2-2.8,0.6l-0.7-2.2c1.1-0.5,2.2-0.8,3.9-0.8c1.6,0,2.7,0.4,3.4,1.1c0.8,0.8,1.1,1.9,1.1,3.2v5.9H237v-1.1
			c-0.7,0.8-1.7,1.3-3.1,1.3C232,126,230.4,124.9,230.4,122.8z M237,122.2v-0.5c-0.5-0.2-1.1-0.4-1.8-0.4c-1.2,0-2,0.5-2,1.4l0,0
			c0,0.8,0.6,1.2,1.6,1.2C236.1,124,237,123.2,237,122.2z"/>
		<path fill="#211551" d="M242.5,111.9h3v2.6h-3V111.9z M242.6,115.6h2.9v10.2h-2.9V115.6z"/>
		<path fill="#211551" d="M248.4,115.6h2.9v2c0.6-1.4,1.5-2.3,3.2-2.2v3h-0.2c-1.9,0-3.1,1.2-3.1,3.6v3.8h-2.9v-10.2
			C248.3,115.6,248.4,115.6,248.4,115.6z"/>
	</g>
</g>
</svg>
